<svg xmlns="http://www.w3.org/2000/svg" xmlns:xlink="http://www.w3.org/1999/xlink" version="1.1" id="Layer_1" x="0px" y="0px" style="enable-background:new 0 0 841.89 595.28;" xml:space="preserve" viewBox="311.72 262.84 235.94 69.75">
<style type="text/css">
	.st0{fill:#58595B;}
	.st1{fill:#253B3E;}
	.st2{fill:#EE7123;}
</style>
<g>
	<path class="st0" d="M315.43,330.57c-2.17,0-3.71-1.73-3.71-4.28c0-2.52,1.56-4.31,3.8-4.31c0.89,0,1.68,0.29,2.3,0.72l-0.11,0.6   c-0.68-0.49-1.4-0.8-2.21-0.8c-1.95,0-3.19,1.56-3.19,3.77c0,2.22,1.25,3.79,3.15,3.79c0.9,0,1.73-0.36,2.4-0.89l0.08,0.55   C317.33,330.2,316.45,330.57,315.43,330.57z"/>
	<path class="st0" d="M322.95,330.54c-1.4,0-2.48-1.08-2.48-2.94c0-1.87,1.12-2.94,2.48-2.94c1.42,0,2.49,1.07,2.49,2.94   C325.44,329.46,324.33,330.54,322.95,330.54z M322.95,325.15c-1.22,0-1.9,1-1.9,2.45c0,1.42,0.68,2.45,1.9,2.45   c1.22,0,1.91-0.98,1.91-2.45C324.86,326.18,324.17,325.15,322.95,325.15z"/>
	<path class="st0" d="M332.14,330.42v-3.92c0-0.85-0.41-1.32-1.21-1.32c-0.62,0-1.27,0.36-1.98,1.02v4.22h-0.56v-5.64h0.41   l0.14,0.85c0.68-0.6,1.31-0.97,2.05-0.97c1.16,0,1.71,0.66,1.71,1.79v3.97H332.14z"/>
	<path class="st0" d="M337.53,330.51c-0.76,0-1.5-0.23-2-0.5l0.11-0.55c0.53,0.3,1.21,0.55,1.96,0.55c0.84,0,1.39-0.37,1.39-1.03   c0-0.59-0.35-0.89-1.56-1.22c-1.19-0.32-1.73-0.73-1.73-1.6s0.74-1.49,1.86-1.49c0.64,0,1.2,0.16,1.66,0.38l-0.1,0.54   c-0.52-0.26-1.04-0.41-1.58-0.41c-0.89,0-1.28,0.42-1.28,0.94c0,0.53,0.34,0.79,1.34,1.07c1.28,0.35,1.94,0.79,1.94,1.74   C339.53,329.95,338.71,330.51,337.53,330.51z"/>
	<path class="st0" d="M346.31,330.42l-0.14-0.85c-0.68,0.6-1.31,0.97-2.05,0.97c-1.16,0-1.72-0.66-1.72-1.79v-3.97h0.56v3.92   c0,0.85,0.41,1.32,1.21,1.32c0.62,0,1.27-0.36,1.98-1.02v-4.22h0.56v5.64H346.31z"/>
	<path class="st0" d="M350.12,330.42v-8.46l0.55-0.12v8.58H350.12z"/>
	<path class="st0" d="M355.66,330.51c-0.8,0-1.33-0.34-1.33-1.28v-3.97h-0.88v-0.48h0.88v-2l0.56-0.12v2.12h1.38l0.07,0.48h-1.45   v3.87c0,0.66,0.26,0.89,0.89,0.89c0.18,0,0.43-0.05,0.56-0.08l0.08,0.46C356.29,330.45,355.97,330.51,355.66,330.51z"/>
	<path class="st0" d="M361.34,330.54c-1.4,0-2.48-1.08-2.48-2.94c0-1.87,1.12-2.94,2.48-2.94c1.42,0,2.49,1.07,2.49,2.94   C363.83,329.46,362.72,330.54,361.34,330.54z M361.34,325.15c-1.22,0-1.9,1-1.9,2.45c0,1.42,0.68,2.45,1.9,2.45   c1.22,0,1.91-0.98,1.91-2.45C363.25,326.18,362.56,325.15,361.34,325.15z"/>
	<path class="st0" d="M367.34,326.71v3.71h-0.56v-5.64h0.37l0.18,1.17c0.43-0.64,1.09-1.28,2.03-1.29l0.1,0.53   C368.53,325.25,367.72,325.95,367.34,326.71z"/>
	<path class="st0" d="M372.44,323.25c-0.26,0-0.49-0.24-0.49-0.49c0-0.26,0.23-0.48,0.49-0.48c0.26,0,0.48,0.22,0.48,0.48   C372.92,323.01,372.7,323.25,372.44,323.25z M372.16,330.42v-5.64h0.55v5.64H372.16z"/>
	<path class="st0" d="M379.55,330.42l-0.13-0.76c-0.59,0.52-1.28,0.88-1.99,0.88c-0.95,0-1.7-0.48-1.7-1.5   c0-1.26,0.96-1.93,3.67-2.18v-0.49c0-0.79-0.47-1.18-1.25-1.18c-0.65,0-1.31,0.18-1.93,0.5l-0.07-0.53   c0.64-0.29,1.28-0.49,2.03-0.49c1.15,0,1.77,0.59,1.77,1.67v4.08H379.55z M379.4,327.32c-2.33,0.25-3.09,0.74-3.09,1.67   c0,0.72,0.52,1.05,1.15,1.05c0.6,0,1.33-0.36,1.94-0.9V327.32z"/>
	<path class="st0" d="M391.46,327.6h-3.98c0,1.44,0.67,2.45,1.93,2.45c0.68,0,1.4-0.36,1.96-0.86l0.08,0.53   c-0.52,0.47-1.26,0.83-2.06,0.83c-1.49,0-2.48-1.1-2.48-2.94c0-1.8,1.03-2.94,2.4-2.94c1.44,0,2.16,1.26,2.16,2.82   C391.46,327.51,391.46,327.55,391.46,327.6z M389.3,325.13c-1.07,0-1.67,0.83-1.8,2h3.36C390.82,326.03,390.28,325.13,389.3,325.13   z"/>
	<path class="st0" d="M401.77,330.42v-3.92c0-0.85-0.37-1.32-1.19-1.32c-0.6,0-1.24,0.35-1.94,1v4.25h-0.55v-3.92   c0-0.85-0.37-1.32-1.19-1.32c-0.6,0-1.25,0.35-1.94,0.98v4.26h-0.56v-5.64h0.41l0.14,0.82c0.67-0.58,1.28-0.94,2.01-0.94   c0.89,0,1.39,0.36,1.58,1.02c0.71-0.62,1.34-1.02,2.11-1.02c1.16,0,1.68,0.65,1.68,1.76v3.99H401.77z"/>
	<path class="st0" d="M414.23,324.68l0.11,0.62l-1.2,0.13c0.24,0.3,0.37,0.68,0.37,1.12c0,1.18-0.96,1.9-2.05,1.9   c-0.18,0-0.37-0.02-0.54-0.06c-0.32,0.18-0.46,0.31-0.46,0.46c0,0.25,0.25,0.36,1.32,0.56l0.43,0.08c1.3,0.25,1.93,0.61,1.93,1.4   c0,1.02-1.18,1.66-2.63,1.66c-1.44,0-2.52-0.52-2.52-1.46c0-0.56,0.47-1.12,1.37-1.54c-0.32-0.18-0.48-0.37-0.48-0.6   c0-0.3,0.19-0.5,0.56-0.73c-0.62-0.3-1.04-0.89-1.04-1.67c0-1.17,0.97-1.89,2.03-1.89c0.54,0,1.03,0.17,1.4,0.48L414.23,324.68z    M409.58,331.06c0,0.68,0.89,1.03,1.99,1.03c1.19,0,2.02-0.49,2.02-1.13c0-0.52-0.43-0.76-1.6-0.98l-0.43-0.08   c-0.28-0.06-0.47-0.1-0.67-0.14C410,330.13,409.58,330.57,409.58,331.06z M411.44,325.1c-0.89,0-1.45,0.61-1.45,1.45   c0,0.8,0.56,1.45,1.48,1.45c0.92,0,1.49-0.62,1.49-1.45C412.95,325.75,412.34,325.1,411.44,325.1z"/>
	<path class="st0" d="M421.03,327.6h-3.98c0,1.44,0.67,2.45,1.93,2.45c0.68,0,1.4-0.36,1.95-0.86l0.08,0.53   c-0.52,0.47-1.26,0.83-2.06,0.83c-1.49,0-2.48-1.1-2.48-2.94c0-1.8,1.03-2.94,2.4-2.94c1.44,0,2.16,1.26,2.16,2.82   C421.03,327.51,421.03,327.55,421.03,327.6z M418.87,325.13c-1.07,0-1.67,0.83-1.8,2h3.36   C420.39,326.03,419.85,325.13,418.87,325.13z"/>
	<path class="st0" d="M425.55,330.51c-0.76,0-1.5-0.23-2-0.5l0.11-0.55c0.53,0.3,1.21,0.55,1.96,0.55c0.84,0,1.39-0.37,1.39-1.03   c0-0.59-0.35-0.89-1.56-1.22c-1.19-0.32-1.73-0.73-1.73-1.6s0.74-1.49,1.86-1.49c0.64,0,1.2,0.16,1.66,0.38l-0.1,0.54   c-0.52-0.26-1.04-0.41-1.58-0.41c-0.89,0-1.28,0.42-1.28,0.94c0,0.53,0.33,0.79,1.34,1.07c1.28,0.35,1.94,0.79,1.94,1.74   C427.55,329.95,426.73,330.51,425.55,330.51z"/>
	<path class="st0" d="M432.09,330.51c-0.8,0-1.33-0.34-1.33-1.28v-3.97h-0.88v-0.48h0.88v-2l0.56-0.12v2.12h1.38l0.07,0.48h-1.45   v3.87c0,0.66,0.26,0.89,0.89,0.89c0.18,0,0.43-0.05,0.56-0.08l0.08,0.46C432.71,330.45,432.4,330.51,432.09,330.51z"/>
	<path class="st0" d="M439.16,330.42l-0.13-0.76c-0.59,0.52-1.28,0.88-1.99,0.88c-0.95,0-1.7-0.48-1.7-1.5   c0-1.26,0.96-1.93,3.67-2.18v-0.49c0-0.79-0.47-1.18-1.25-1.18c-0.65,0-1.31,0.18-1.93,0.5l-0.07-0.53   c0.64-0.29,1.28-0.49,2.03-0.49c1.15,0,1.78,0.59,1.78,1.67v4.08H439.16z M439,327.32c-2.33,0.25-3.09,0.74-3.09,1.67   c0,0.72,0.52,1.05,1.15,1.05c0.6,0,1.33-0.36,1.94-0.9V327.32z M438.49,323.7c-0.34,0-0.5-0.1-0.94-0.32   c-0.38-0.2-0.54-0.32-0.74-0.32c-0.19,0-0.36,0.22-0.47,0.66l-0.41-0.08c0.13-0.73,0.46-1.15,0.86-1.15c0.35,0,0.5,0.11,0.94,0.34   c0.38,0.2,0.55,0.31,0.74,0.31c0.2,0,0.36-0.22,0.48-0.65l0.4,0.08C439.23,323.28,438.89,323.7,438.49,323.7z"/>
	<path class="st0" d="M444.91,330.54c-1.4,0-2.48-1.08-2.48-2.94c0-1.87,1.12-2.94,2.48-2.94c1.42,0,2.5,1.07,2.5,2.94   C447.4,329.46,446.28,330.54,444.91,330.54z M444.91,325.15c-1.22,0-1.89,1-1.89,2.45c0,1.42,0.68,2.45,1.89,2.45   c1.22,0,1.91-0.98,1.91-2.45C446.81,326.18,446.13,325.15,444.91,325.15z"/>
	<path class="st0" d="M458.33,330.42l-0.14-0.83c-0.44,0.52-0.98,0.95-1.8,0.95c-1.25,0-2.31-0.89-2.31-2.78   c0-2.05,1.22-3.06,2.59-3.06c0.58,0,1.07,0.11,1.51,0.3v-3.03l0.56-0.12v8.58H458.33z M458.18,325.55   c-0.44-0.23-0.94-0.36-1.5-0.36c-1.12,0-2.01,0.8-2.01,2.54c0,1.48,0.73,2.29,1.74,2.29c0.68,0,1.22-0.41,1.77-1.03V325.55z"/>
	<path class="st0" d="M466.24,327.6h-3.98c0,1.44,0.67,2.45,1.93,2.45c0.68,0,1.4-0.36,1.96-0.86l0.08,0.53   c-0.52,0.47-1.26,0.83-2.06,0.83c-1.49,0-2.48-1.1-2.48-2.94c0-1.8,1.03-2.94,2.4-2.94c1.44,0,2.16,1.26,2.16,2.82   C466.24,327.51,466.24,327.55,466.24,327.6z M464.08,325.13c-1.07,0-1.67,0.83-1.8,2h3.36   C465.6,326.03,465.06,325.13,464.08,325.13z"/>
	<path class="st0" d="M475.34,330.49c-0.56,0-1.07-0.11-1.51-0.29v2.27l-0.56,0.12v-7.81h0.41l0.14,0.82   c0.46-0.52,0.98-0.94,1.8-0.94c1.25,0,2.32,0.89,2.32,2.78C477.93,329.49,476.7,330.49,475.34,330.49z M475.6,325.17   c-0.68,0-1.21,0.4-1.77,1.03v3.44c0.44,0.22,0.94,0.35,1.5,0.35c1.13,0,2.01-0.8,2.01-2.53   C477.34,325.98,476.61,325.17,475.6,325.17z"/>
	<path class="st0" d="M485.08,327.6h-3.98c0,1.44,0.67,2.45,1.93,2.45c0.68,0,1.4-0.36,1.96-0.86l0.08,0.53   c-0.52,0.47-1.26,0.83-2.06,0.83c-1.49,0-2.48-1.1-2.48-2.94c0-1.8,1.03-2.94,2.4-2.94c1.44,0,2.16,1.26,2.16,2.82   C485.08,327.51,485.08,327.55,485.08,327.6z M482.92,325.13c-1.07,0-1.67,0.83-1.8,2h3.36   C484.44,326.03,483.9,325.13,482.92,325.13z"/>
	<path class="st0" d="M488.59,326.71v3.71h-0.56v-5.64h0.37l0.18,1.17c0.43-0.64,1.09-1.28,2.03-1.29l0.1,0.53   C489.77,325.25,488.97,325.95,488.59,326.71z"/>
	<path class="st0" d="M495.12,322.34c-0.58,0-0.92,0.29-0.92,0.98v1.45h1.19l0.08,0.48h-1.27v5.16h-0.55v-5.16h-0.88v-0.48h0.88   v-1.48c0-0.97,0.52-1.47,1.45-1.47c0.18,0,0.26,0,0.37,0.01l0.08,0.54C495.45,322.36,495.35,322.34,495.12,322.34z"/>
	<path class="st0" d="M500.1,330.54c-1.4,0-2.48-1.08-2.48-2.94c0-1.87,1.12-2.94,2.48-2.94c1.42,0,2.49,1.07,2.49,2.94   C502.6,329.46,501.48,330.54,500.1,330.54z M500.1,325.15c-1.22,0-1.9,1-1.9,2.45c0,1.42,0.68,2.45,1.9,2.45   c1.22,0,1.91-0.98,1.91-2.45C502.01,326.18,501.33,325.15,500.1,325.15z"/>
	<path class="st0" d="M506.11,326.71v3.71h-0.56v-5.64h0.37l0.18,1.17c0.43-0.64,1.09-1.28,2.03-1.29l0.1,0.53   C507.29,325.25,506.49,325.95,506.11,326.71z"/>
	<path class="st0" d="M518.22,330.42v-3.92c0-0.85-0.37-1.32-1.19-1.32c-0.6,0-1.23,0.35-1.94,1v4.25h-0.55v-3.92   c0-0.85-0.37-1.32-1.19-1.32c-0.6,0-1.25,0.35-1.94,0.98v4.26h-0.56v-5.64h0.41l0.14,0.82c0.67-0.58,1.28-0.94,2.02-0.94   c0.89,0,1.39,0.36,1.58,1.02c0.71-0.62,1.34-1.02,2.11-1.02c1.16,0,1.68,0.65,1.68,1.76v3.99H518.22z"/>
	<path class="st0" d="M525.48,330.42l-0.13-0.76c-0.59,0.52-1.28,0.88-1.99,0.88c-0.95,0-1.7-0.48-1.7-1.5   c0-1.26,0.96-1.93,3.67-2.18v-0.49c0-0.79-0.47-1.18-1.25-1.18c-0.65,0-1.31,0.18-1.93,0.5l-0.07-0.53   c0.64-0.29,1.28-0.49,2.03-0.49c1.15,0,1.78,0.59,1.78,1.67v4.08H525.48z M525.33,327.32c-2.33,0.25-3.09,0.74-3.09,1.67   c0,0.72,0.52,1.05,1.15,1.05c0.6,0,1.33-0.36,1.94-0.9V327.32z"/>
	<path class="st0" d="M532.87,330.42v-3.92c0-0.85-0.41-1.32-1.21-1.32c-0.62,0-1.27,0.36-1.98,1.02v4.22h-0.56v-5.64h0.41   l0.14,0.85c0.68-0.6,1.31-0.97,2.05-0.97c1.16,0,1.72,0.66,1.72,1.79v3.97H532.87z"/>
	<path class="st0" d="M538.79,330.54c-1.38,0-2.48-1.08-2.48-2.94c0-1.87,1.12-2.94,2.52-2.94c0.71,0,1.33,0.25,1.82,0.62   l-0.11,0.58c-0.56-0.48-1.09-0.71-1.74-0.71c-1.2,0-1.91,1-1.91,2.45c0,1.42,0.68,2.45,1.96,2.45c0.61,0,1.18-0.22,1.76-0.72   l0.07,0.53C540.17,330.28,539.55,330.54,538.79,330.54z"/>
	<path class="st0" d="M547.65,327.6h-3.98c0,1.44,0.67,2.45,1.93,2.45c0.68,0,1.4-0.36,1.96-0.86l0.08,0.53   c-0.52,0.47-1.26,0.83-2.06,0.83c-1.49,0-2.48-1.1-2.48-2.94c0-1.8,1.03-2.94,2.4-2.94c1.44,0,2.16,1.26,2.16,2.82   C547.65,327.51,547.65,327.55,547.65,327.6z M545.49,325.13c-1.07,0-1.67,0.83-1.8,2h3.36   C547.01,326.03,546.47,325.13,545.49,325.13z"/>
</g>
<g>
	<g>
		<path class="st1" d="M360.99,309.07h-10.04c-1.27,0-3.14,0-5.61,0c-1.99,0-3.41,0-4.25,0c-4.4,0-7.91-1.46-10.54-4.38    c-2.62-2.92-3.93-6.69-3.93-11.33v-14.08c0-4.63,1.34-8.45,4.02-11.46c2.68-3.01,6.22-4.51,10.63-4.51h29.93v8.59H341.2    c-1.93,0-3.49,0.78-4.67,2.34c-1.18,1.56-1.77,3.4-1.77,5.5v13.34c0,2.04,0.56,3.77,1.68,5.18c1.12,1.41,2.65,2.15,4.58,2.21    l18.87,0.45c2.9,0.06,4.5-1.93,4.81-5.97c0.24-3.86-1.27-5.79-4.52-5.79h-5.55l0.09-8.59h6.27c3.86,0,6.93,1.42,9.22,4.25    c2.05,2.65,3.07,5.97,3.07,9.95C373.29,304.3,369.19,309.07,360.99,309.07z"/>
		<path class="st1" d="M426.98,308.69h-8.14v-21.32h-25.5c-2.23,0-3.92,0.77-5.06,2.32c-1.15,1.55-1.45,3.17-1.5,4.98    c-0.03,1.31,0.25,3.5,1.5,4.38c1.82,1.27,3.19,1.05,5.06,1.05h20.35v8.59h-20.35c-4.64,0-7.05,0.42-10.31-1.89    c-3.43-2.43-4.61-7.34-4.61-12.24c0-4.47,1.43-8.22,4.3-11.25c2.86-3.02,6.41-4.53,10.63-4.53h24.96    c-0.08-5.79-3.41-7.34-5.88-7.34h-31.31v-8.59h31.25c4.27,0,7.78,1.54,10.51,4.61c2.74,3.08,4.11,6.87,4.11,11.39V308.69z"/>
		<path class="st1" d="M469.19,308.69c-7.29,0-10.04,0-10.04,0l-9.82-0.04l-0.04-8.55h19.96c1.94,0,3.49-0.78,4.67-2.35    c1.18-1.57,1.77-3.41,1.77-5.52v-12.75c0-2.11-0.56-3.87-1.68-5.29c-1.12-1.42-2.65-2.12-4.58-2.12h-18.41    c-1.94,0-3.55,0.69-4.85,2.08c-1.3,1.39-1.95,3.07-1.95,5.06v36.7h-8.14v-36.06c0-4.52,1.42-8.38,4.25-11.58    c2.83-3.2,6.39-4.79,10.67-4.79h18.36c4.28,0,7.76,1.4,10.44,4.21c2.68,2.8,4.02,6.44,4.02,10.9v14.11    c0,4.52-1.33,8.32-3.98,11.39C477.21,307.15,473.66,308.69,469.19,308.69z"/>
		<path class="st1" d="M521.35,308.51h-29.93v-8.59h28.67c2.71,0,4.07-1.84,4.07-5.52c0-3.26-1.21-4.88-3.62-4.88h-19.44    c-3.38,0-6.15-1.36-8.32-4.07c-2.05-2.53-3.07-5.61-3.07-9.22c0-3.62,1.06-6.75,3.17-9.41c2.11-2.65,4.85-3.98,8.23-3.98h29.93    v8.59h-28.67c-2.71,0-4.07,1.54-4.07,4.61c0,3.26,1.18,4.88,3.53,4.88h19.54c3.38,0,6.12,1.31,8.23,3.93    c2.11,2.62,3.17,5.74,3.17,9.36c0,3.8-0.94,7.05-2.8,9.77C527.89,307,525.03,308.51,521.35,308.51z"/>
	</g>
	<rect x="362.27" y="263.3" class="st2" width="8.94" height="8.6"/>
</g>
</svg>